<?xml version="1.0" encoding="UTF-8"?>
<svg id="_レイヤー_2" data-name="レイヤー_2" xmlns="http://www.w3.org/2000/svg" viewBox="0 0 85.04 85.04">
  <defs>
    <style>
      .cls-1 {
        fill: #231815;
      }

      .cls-2 {
        fill: #fff;
      }
    </style>
  </defs>
  <g id="_レイヤー_1-2" data-name="レイヤー_1">
    <rect class="cls-2" width="85.04" height="85.04"/>
    <path class="cls-1" d="M51.2,79.17c-8.16-.26-14.97-1.36-21.17-3.49-10.03-3.4-17.01-11.57-17.01-19.9,0-4.85,1.53-8.59,4.59-11.4,3.74-3.49,9.01-5.27,15.22-5.27,7.57,0,14.97,2.55,23.9,8.33l.08-.08c-6.63-7.23-12.33-13.1-18.54-19.13q-6.97-6.72-9.44-8.5c-2.47-1.79-2.64-1.96-2.64-3.06s.94-2.72,2.72-4.68c2.04-2.3,3.83-3.57,5.19-3.57.77,0,1.36.25,2.47.94,1.79,1.11,2.81,1.53,6.55,2.47,7.4,1.87,10.97,2.55,13.27,2.55,2.98,0,4.85-1.62,7.06-6.21.51,1.11.68,1.62.68,2.47,0,1.87-.94,4.51-2.47,6.89-1.62,2.55-3.4,3.91-5.1,3.91-.85,0-1.7-.26-3.83-1.28-3.66-1.79-9.44-4-14.12-5.53-1.02-.34-1.7-.6-2.04-.68-.08-.08-.17-.08-.17-.08-.17,0-.25.08-.25.17,0,1.28,7.82,11.06,17.6,22.19,7.14,8.16,11.23,12.16,15.31,15.22,2.21,1.62,2.72,2.47,2.72,4.42,0,3.74-1.96,7.06-4.17,7.06-1.28,0-2.13-.6-3.74-2.72-8.16-10.8-19.64-17.52-29.76-17.52-7.23,0-12.08,4.42-12.08,11.14,0,5.95,2.72,11.14,7.99,15.39,5.02,4,10.38,6.21,21.34,8.93l-.17,1.02Z"/>
  </g>
</svg>